<svg width="200" height="200" viewBox="0 0 200 200" fill="none" xmlns="http://www.w3.org/2000/svg">
<circle cx="100" cy="100" r="100" fill="white"/>
<path d="M120.359 79.5207C122.101 80.5729 122.104 83.1856 120.367 84.2434L101.492 95.735C100.663 96.2394 99.6375 96.2346 98.8136 95.722L80.1101 84.0869C78.3855 83.0144 78.408 80.4089 80.1508 79.3694L98.9461 68.1554C99.7595 67.6694 100.763 67.6723 101.575 68.1633L120.359 79.5207Z" fill="#F08728"/>
<path d="M124.491 91.8563C124.49 89.7494 122.294 88.4359 120.542 89.4945L102.952 100.125C101.301 101.122 99.2612 101.111 97.6209 100.096L56.742 74.788C54.9963 73.7067 55.0385 71.0614 56.8204 70.0432L97.7805 46.6287C99.3531 45.7287 101.26 45.7271 102.837 46.6243L145.376 70.8489C147.06 71.8076 148.107 73.6446 148.108 75.6411L148.138 124.721C148.14 126.607 147.206 128.361 145.667 129.361L103.19 156.963C101.466 158.084 99.2748 158.07 97.5636 156.927L80.3469 145.427C78.6041 144.262 76.3101 145.557 76.2995 147.712L76.1956 167.104C76.185 168.973 77.0948 170.719 78.6056 171.731L97.6887 184.51C99.4133 185.664 101.626 185.67 103.357 184.524L168.958 141.094C170.472 140.092 171.389 138.356 171.392 136.49L171.507 61.1533C171.51 59.1187 170.427 57.2509 168.695 56.3046L102.851 20.3266C101.317 19.4883 99.4841 19.4902 97.9507 20.3318L31.8493 56.6298C30.1262 57.576 29.0477 59.4352 29.0477 61.4613L29.001 136.655C29.001 138.568 29.9605 140.343 31.536 141.335L48.7437 152.174C50.491 153.275 52.7278 151.969 52.7339 149.842L52.8468 105.203C52.8513 103.061 55.1168 101.757 56.8656 102.89L97.4868 129.205C99.1769 130.3 101.319 130.307 103.016 129.223L121.998 117.1C123.557 116.105 124.506 114.339 124.505 112.437L124.491 91.8563Z" fill="#0D9F9F"/>
<mask id="mask0_138_676" style="mask-type:alpha" maskUnits="userSpaceOnUse" x="29" y="19" width="143" height="166">
<path d="M120.355 78.9943C122.097 80.0465 122.1 82.6594 120.363 83.7169L101.488 95.2088C100.659 95.7132 99.6336 95.7077 98.8097 95.1957L80.1062 83.5605C78.3816 82.4881 78.4041 79.8827 80.1469 78.843L98.9422 67.629C99.7571 67.143 100.759 67.146 101.571 67.637L120.355 78.9943Z" fill="#F08728"/>
<path d="M124.49 91.3305C124.489 89.2236 122.293 87.9107 120.541 88.9693L102.951 99.5994C101.3 100.597 99.2602 100.586 97.6199 99.5706L56.7411 74.2627C54.9938 73.1814 55.0375 70.536 56.8194 69.5178L97.7781 46.1034C99.3521 45.2033 101.259 45.2018 102.835 46.099L145.375 70.3234C147.057 71.2823 148.106 73.1192 148.107 75.1156L148.137 124.195C148.139 126.082 147.203 127.836 145.666 128.835L103.189 156.438C101.464 157.559 99.2738 157.544 97.5627 156.402L80.3459 144.902C78.6032 143.737 76.3091 145.031 76.2971 147.186L76.1931 166.578C76.1841 168.448 77.0924 170.194 78.6047 171.206L97.6862 183.984C99.4124 185.138 101.625 185.144 103.356 184L168.957 140.568C170.469 139.566 171.388 137.831 171.391 135.964L171.506 60.628C171.507 58.5934 170.424 56.7254 168.692 55.7792L102.85 19.8012C101.315 18.9629 99.4832 18.9648 97.9498 19.8064L31.8484 56.1045C30.1252 57.0505 29.0467 58.9098 29.0452 60.936L29 136.13C28.9985 138.043 29.9595 139.818 31.5336 140.81L48.7413 151.648C50.49 152.75 52.7269 151.443 52.7314 149.317L52.8458 104.677C52.8504 102.535 55.1158 101.232 56.8631 102.365L97.4843 128.68C99.1759 129.775 101.318 129.782 103.015 128.698L121.997 116.575C123.555 115.579 124.505 113.814 124.504 111.912L124.49 91.3305Z" fill="#0D9F9F"/>
</mask>
<g mask="url(#mask0_138_676)">
<g style="mix-blend-mode:screen" opacity="0.4">
<path opacity="0.61" d="M27.4278 -5.85742L-3.24902 15.4158L38.3332 29.5926L27.4278 -5.85742Z" fill="white"/>
<path d="M64.8817 5.79685L27.4297 -5.85742L38.3351 29.5926L64.8817 5.79685Z" fill="white"/>
<path opacity="0.79" d="M-3.24902 15.416L3.00654 42.9488L38.3332 29.5928L-3.24902 15.416Z" fill="white"/>
<path opacity="0.39" d="M38.333 29.5926L75.187 37.3402L64.8796 5.79688L38.333 29.5926Z" fill="white"/>
<path opacity="0.82" d="M33.9463 61.5292L75.1866 37.3394L38.3341 29.5918L33.9463 61.5292Z" fill="white"/>
<path opacity="0.61" d="M3.00586 42.9479L33.9448 61.5292L38.3325 29.5918L3.00586 42.9479Z" fill="white"/>
<path opacity="0.57" d="M95.8142 -12.7793L64.8799 5.79661L95.8142 24.3725V-12.7793Z" fill="white"/>
<path opacity="0.86" d="M135.611 -0.583145L95.8125 -12.7793V24.3725L135.611 -0.583145Z" fill="white"/>
<path opacity="0.61" d="M64.8799 5.79688L75.1813 37.3402L95.8142 24.3727L64.8799 5.79688Z" fill="white"/>
<path opacity="0.57" d="M95.8125 24.3727L126.753 42.9485L135.611 -0.583008L95.8125 24.3727Z" fill="white"/>
<path opacity="0.77" d="M101.09 54.3561L126.753 42.948L95.8125 24.3721L101.09 54.3561Z" fill="white"/>
<path opacity="0.37" d="M75.1807 37.3397L101.09 54.3561L95.8151 24.3721L75.1807 37.3397Z" fill="white"/>
<path opacity="0.81" d="M161.033 -3.72949L135.611 -0.583371L157.687 24.3723L161.033 -3.72949Z" fill="white"/>
<path opacity="0.86" d="M188.99 -2.31239L161.034 -3.72949L157.688 24.3723L188.99 -2.31239Z" fill="white"/>
<path opacity="0.5" d="M135.613 -0.583008L126.749 42.9485L157.688 24.3727L135.613 -0.583008Z" fill="white"/>
<path opacity="0.22" d="M157.688 24.3722L188.627 42.9481L188.99 -2.3125L157.688 24.3722Z" fill="white"/>
<path opacity="0.5" d="M150.19 73.5775L188.626 42.948L157.686 24.3721L150.19 73.5775Z" fill="white"/>
<path opacity="0.79" d="M126.749 42.948L150.191 73.5775L157.688 24.3721L126.749 42.948Z" fill="white"/>
<path opacity="0.39" d="M33.9092 61.5788L2.96875 43.0029L8.34012 69.2936L33.9092 61.5788Z" fill="white"/>
<path opacity="0.82" d="M8.34082 69.2939L33.9083 98.7365V61.5791L8.34082 69.2939Z" fill="white"/>
<path opacity="0.61" d="M2.96875 117.312L33.9092 98.7364L8.34012 69.2939L2.96875 117.312Z" fill="white"/>
<path opacity="0.81" d="M75.1427 37.3906L33.9023 61.5802L64.8412 80.1561L75.1427 37.3906Z" fill="white"/>
<path opacity="0.93" d="M101.055 54.4069L75.1452 37.3906L64.8438 80.1561L101.055 54.4069Z" fill="white"/>
<path opacity="0.57" d="M33.9023 61.5791V98.7365L64.8412 80.1549L33.9023 61.5791Z" fill="white"/>
<path opacity="0.79" d="M64.8438 80.1543L103.059 89.0946L101.055 54.4053L64.8438 80.1543Z" fill="white"/>
<path opacity="0.86" d="M64.8438 117.312L103.059 89.0947L64.8438 80.1543V117.312Z" fill="white"/>
<path opacity="0.39" d="M33.9023 98.7359L64.8412 117.312V80.1543L33.9023 98.7359Z" fill="white"/>
<path opacity="0.35" d="M126.711 43.0029L101.05 54.4055L126.711 80.1546V43.0029Z" fill="white"/>
<path opacity="0.77" d="M150.154 73.6325L126.712 43.0029V80.1546L150.154 73.6325Z" fill="white"/>
<path opacity="0.37" d="M101.05 54.4053L103.053 89.0946L126.711 80.1543L101.05 54.4053Z" fill="white"/>
<path opacity="0.22" d="M126.712 80.1548L157.651 98.7362L150.154 73.6328L126.712 80.1548Z" fill="white"/>
<path opacity="0.37" d="M126.712 117.312L157.651 98.7359L126.712 80.1543V117.312Z" fill="white"/>
<path opacity="0.63" d="M103.053 89.0947L126.71 117.312V80.1543L103.053 89.0947Z" fill="white"/>
<path opacity="0.77" d="M188.585 43.0029L150.149 73.6325L188.585 80.1546V43.0029Z" fill="white"/>
<path opacity="0.57" d="M150.149 73.6328L157.646 98.7362L188.585 80.1548L150.149 73.6328Z" fill="white"/>
<path opacity="0.77" d="M157.645 98.7359L188.585 117.312V80.1543L157.645 98.7359Z" fill="white"/>
<path opacity="0.37" d="M33.9448 98.7852L3.00586 117.361L26.0639 142.317L33.9448 98.7852Z" fill="white"/>
<path opacity="0.79" d="M64.8777 117.361L33.9433 98.7852L26.0625 142.317L64.8777 117.361Z" fill="white"/>
<path opacity="0.69" d="M26.0625 142.317L64.8777 154.513V117.361L26.0625 142.317Z" fill="white"/>
<path opacity="0.39" d="M33.9433 173.089L64.8777 154.513L26.0625 142.317L33.9433 173.089Z" fill="white"/>
<path opacity="0.58" d="M3.00586 154.513L33.9448 173.089L26.0639 142.317L3.00586 154.513Z" fill="white"/>
<path opacity="0.57" d="M103.096 89.1445L64.8799 117.361L95.8143 135.937L103.096 89.1445Z" fill="white"/>
<path opacity="0.81" d="M126.753 117.361L103.094 89.1445L95.8125 135.937L126.753 117.361Z" fill="white"/>
<path opacity="0.57" d="M64.8799 117.361V154.513L95.8142 135.937L64.8799 117.361Z" fill="white"/>
<path opacity="0.65" d="M95.8125 135.937L122.901 147.942L126.753 117.361L95.8125 135.937Z" fill="white"/>
<path opacity="0.79" d="M98.3596 177.008L122.901 147.942L95.8125 135.938L98.3596 177.008Z" fill="white"/>
<path opacity="0.69" d="M64.8799 154.513L98.3599 177.008L95.8143 135.938L64.8799 154.513Z" fill="white"/>
<path opacity="0.65" d="M157.688 98.7852L126.749 117.361L154.22 145.862L157.688 98.7852Z" fill="white"/>
<path opacity="0.81" d="M188.627 117.361L157.688 98.7852L154.222 145.862L188.627 117.361Z" fill="white"/>
<path opacity="0.35" d="M126.748 117.361L122.897 147.942L154.22 145.863L126.748 117.361Z" fill="white"/>
<path opacity="0.22" d="M154.222 145.863L186.98 159.99L188.627 117.361L154.222 145.863Z" fill="white"/>
<path opacity="0.37" d="M157.688 173.089L186.98 159.99L154.222 145.863L157.688 173.089Z" fill="white"/>
<path opacity="0.75" d="M122.897 147.942L157.688 173.089L154.22 145.863L122.897 147.942Z" fill="white"/>
<path opacity="0.79" d="M33.909 173.143L2.9686 154.567L2.88574 184.858L33.909 173.143Z" fill="white"/>
<path opacity="0.58" d="M2.88574 184.858L32.8456 197.569L33.909 173.144L2.88574 184.858Z" fill="white"/>
<path opacity="0.81" d="M64.8412 154.567L33.9023 173.143L51.9626 197.617L64.8412 154.567Z" fill="white"/>
<path opacity="0.57" d="M98.3235 177.056L64.8435 154.567L51.9648 197.617L98.3235 177.056Z" fill="white"/>
<path opacity="0.69" d="M33.9018 173.144L32.8398 197.569L51.962 197.617L33.9018 173.144Z" fill="white"/>
<path opacity="0.69" d="M51.9648 197.617L95.7779 210.295L98.3235 177.056L51.9648 197.617Z" fill="white"/>
<path opacity="0.37" d="M122.86 147.991L98.3232 177.055L137.858 192.656L122.86 147.991Z" fill="white"/>
<path opacity="0.65" d="M157.651 173.143L122.86 147.991L137.86 192.656L157.651 173.143Z" fill="white"/>
<path opacity="0.65" d="M98.3239 177.056L95.7783 210.295L137.859 192.656L98.3239 177.056Z" fill="white"/>
<path opacity="0.75" d="M137.857 192.656L157.648 210.296V173.144L137.857 192.656Z" fill="white"/>
<path opacity="0.26" d="M186.937 160.044L157.645 173.144L188.585 191.719L186.937 160.044Z" fill="white"/>
<path opacity="0.7" d="M157.645 173.144V210.296L188.585 191.719L157.645 173.144Z" fill="white"/>
</g>
</g>
<g style="mix-blend-mode:color-burn" opacity="0.4">
<path d="M120.355 78.9943C122.097 80.0465 122.1 82.6594 120.363 83.7169L101.488 95.2088C100.659 95.7132 99.6336 95.7077 98.8097 95.1957L80.1062 83.5605C78.3816 82.4881 78.4041 79.8827 80.1469 78.843L98.9422 67.629C99.7571 67.143 100.759 67.146 101.571 67.637L120.355 78.9943Z" fill="#F08728"/>
<path d="M124.49 91.3305C124.489 89.2236 122.293 87.9107 120.541 88.9693L102.951 99.5994C101.3 100.597 99.2602 100.586 97.6199 99.5706L56.7411 74.2627C54.9938 73.1814 55.0375 70.536 56.8194 69.5178L97.7781 46.1034C99.3521 45.2033 101.259 45.2018 102.835 46.099L145.375 70.3234C147.057 71.2823 148.106 73.1192 148.107 75.1156L148.137 124.195C148.139 126.082 147.203 127.836 145.666 128.835L103.189 156.438C101.464 157.559 99.2738 157.544 97.5627 156.402L80.3459 144.902C78.6032 143.737 76.3091 145.031 76.2971 147.186L76.1931 166.578C76.1841 168.448 77.0924 170.194 78.6047 171.206L97.6862 183.984C99.4124 185.138 101.625 185.144 103.356 184L168.957 140.568C170.469 139.566 171.388 137.831 171.391 135.964L171.506 60.628C171.507 58.5934 170.424 56.7254 168.692 55.7792L102.85 19.8012C101.315 18.9629 99.4832 18.9648 97.9498 19.8064L31.8484 56.1045C30.1252 57.0505 29.0467 58.9098 29.0452 60.936L29 136.13C28.9985 138.043 29.9595 139.818 31.5336 140.81L48.7413 151.648C50.49 152.75 52.7269 151.443 52.7314 149.317L52.8458 104.677C52.8504 102.535 55.1158 101.232 56.8631 102.365L97.4843 128.68C99.1759 129.775 101.318 129.782 103.015 128.698L121.997 116.575C123.555 115.579 124.505 113.814 124.504 111.912L124.49 91.3305Z" fill="#0D9F9F"/>
</g>
</svg>
