<svg width="451" height="233" viewBox="0 0 451 233" fill="none" xmlns="http://www.w3.org/2000/svg">
<g clip-path="url(#clip0_127_564)">
<path d="M443.222 172.867V182.507H428.968V173.272C428.968 170.634 428.182 168.706 426.609 167.489C425.037 166.203 422.952 165.56 420.354 165.56C418.508 165.56 416.833 165.797 415.329 166.271C413.825 166.676 412.458 167.217 411.227 167.894V182.507H396.973V166.474C396.973 164.782 397.314 163.429 397.998 162.414C398.75 161.332 399.81 160.317 401.177 159.37C403.297 157.95 406.031 156.766 409.381 155.818C412.731 154.871 416.457 154.397 420.559 154.397C427.737 154.397 433.309 155.987 437.274 159.167C441.239 162.279 443.222 166.846 443.222 172.867ZM396.973 177.738H411.227V204.223C410.611 204.359 409.723 204.528 408.561 204.731C407.398 204.934 406.134 205.035 404.766 205.035C402.1 205.035 400.117 204.562 398.818 203.614C397.588 202.668 396.973 200.942 396.973 198.439V177.738ZM428.968 177.738H443.222V204.223C442.607 204.359 441.718 204.528 440.556 204.731C439.394 204.934 438.163 205.035 436.864 205.035C434.13 205.035 432.113 204.562 430.814 203.614C429.583 202.668 428.968 200.942 428.968 198.439V177.738Z" fill="white"/>
<path d="M314.809 141.713C314.809 139.548 315.561 137.721 317.065 136.233C318.569 134.745 320.517 134 322.91 134C325.303 134 327.251 134.745 328.755 136.233C330.26 137.721 331.011 139.548 331.011 141.713C331.011 143.878 330.26 145.738 328.755 147.294C327.251 148.783 325.303 149.527 322.91 149.527C320.517 149.527 318.569 148.783 317.065 147.294C315.561 145.738 314.809 143.878 314.809 141.713ZM315.732 177.535H330.089V204.223C329.473 204.358 328.585 204.528 327.422 204.73C326.26 204.934 324.995 205.035 323.628 205.035C320.893 205.035 318.877 204.561 317.578 203.615C316.347 202.667 315.732 200.942 315.732 198.439V177.535ZM330.089 184.841H315.732V156.325C316.347 156.19 317.236 156.021 318.398 155.818C319.56 155.615 320.825 155.514 322.192 155.514C324.927 155.514 326.91 155.987 328.14 156.935C329.439 157.881 330.089 159.64 330.089 162.211V184.841Z" fill="white"/>
<path d="M277.263 177.535H291.518V188.799C291.518 190.828 292.133 192.283 293.363 193.163C294.662 194.042 296.44 194.482 298.696 194.482C299.79 194.482 300.917 194.38 302.08 194.178C303.311 193.906 304.37 193.602 305.259 193.264C305.806 193.805 306.285 194.516 306.695 195.395C307.105 196.207 307.31 197.188 307.31 198.338C307.31 200.435 306.353 202.194 304.439 203.615C302.592 205.035 299.516 205.746 295.209 205.746C289.603 205.746 285.194 204.494 281.98 201.991C278.836 199.488 277.263 195.429 277.263 189.814V177.535ZM286.185 167.894V156.935H306.08C306.421 157.476 306.729 158.22 307.002 159.167C307.344 160.114 307.515 161.163 307.515 162.313C307.515 164.207 307.071 165.628 306.182 166.575C305.293 167.455 304.097 167.894 302.592 167.894H286.185ZM291.518 180.173H277.263V143.641C277.878 143.438 278.767 143.235 279.929 143.033C281.16 142.83 282.425 142.728 283.724 142.728C286.39 142.728 288.339 143.202 289.569 144.148C290.868 145.096 291.518 146.821 291.518 149.324V180.173Z" fill="white"/>
<path d="M247.72 205.565C240.816 205.565 235.312 204.246 231.21 201.607C227.176 198.969 225.16 195.011 225.16 189.735C225.16 185.134 226.595 181.616 229.467 179.181C232.338 176.745 236.611 175.257 242.285 174.716L256.027 173.295V171.773C256.027 169.337 255.104 167.578 253.258 166.496C251.412 165.414 248.814 164.872 245.464 164.872C242.866 164.872 240.303 165.21 237.773 165.887C235.244 166.496 232.988 167.24 231.005 168.12C230.253 167.578 229.604 166.8 229.056 165.786C228.51 164.703 228.236 163.587 228.236 162.437C228.236 159.731 229.706 157.769 232.645 156.551C234.628 155.74 236.918 155.13 239.517 154.725C242.114 154.319 244.678 154.116 247.207 154.116C254.113 154.116 259.616 155.57 263.718 158.479C267.888 161.321 269.974 165.82 269.974 171.976V195.113C269.974 196.804 269.529 198.157 268.641 199.172C267.82 200.119 266.761 200.999 265.461 201.81C263.479 202.96 260.983 203.873 257.975 204.55C254.967 205.227 251.549 205.565 247.72 205.565ZM247.72 195.011C249.498 195.011 251.139 194.842 252.643 194.504C254.215 194.165 255.378 193.76 256.129 193.286V182.935L246.9 183.747C244.439 183.95 242.525 184.491 241.157 185.371C239.79 186.251 239.107 187.536 239.107 189.227C239.107 190.986 239.79 192.407 241.157 193.489C242.525 194.504 244.712 195.011 247.72 195.011Z" fill="white"/>
<path d="M188.331 170.939V182.406H173.974V172.664C173.974 170.229 173.257 168.435 171.821 167.286C170.385 166.135 168.54 165.561 166.284 165.561C164.711 165.561 163.275 165.797 161.976 166.271C160.677 166.744 159.584 167.252 158.695 167.793V182.406H144.44V166.474C144.44 164.85 144.782 163.497 145.466 162.415C146.218 161.332 147.278 160.317 148.645 159.37C150.833 157.882 153.533 156.698 156.747 155.819C160.028 154.871 163.378 154.398 166.796 154.398C170.146 154.398 173.223 154.905 176.026 155.92C178.897 156.935 181.324 158.457 183.307 160.486C183.853 160.893 184.366 161.332 184.845 161.806C185.323 162.212 185.7 162.685 185.973 163.226C186.588 164.241 187.135 165.425 187.614 166.778C188.092 168.131 188.331 169.518 188.331 170.939ZM217.865 172.157V182.406H203.611V172.664C203.611 170.229 202.893 168.435 201.458 167.286C200.09 166.135 198.279 165.561 196.023 165.561C194.382 165.561 192.775 165.899 191.203 166.575C189.699 167.252 188.4 168.097 187.306 169.112L179.922 160.791C182.11 159.032 184.64 157.544 187.511 156.326C190.451 155.04 193.938 154.398 197.971 154.398C201.526 154.398 204.807 155.007 207.816 156.225C210.892 157.375 213.319 159.269 215.097 161.907C216.943 164.478 217.865 167.894 217.865 172.157ZM144.44 177.738H158.695V204.224C158.08 204.359 157.191 204.528 156.028 204.731C154.867 204.934 153.602 205.035 152.234 205.035C149.568 205.035 147.585 204.562 146.286 203.615C145.056 202.668 144.44 200.943 144.44 198.439V177.738ZM173.974 177.738H188.331V204.224C187.716 204.359 186.793 204.528 185.563 204.731C184.401 204.934 183.17 205.035 181.871 205.035C179.136 205.035 177.119 204.562 175.821 203.615C174.59 202.668 173.974 200.943 173.974 198.439V177.738ZM203.611 177.738H217.865V204.224C217.25 204.359 216.361 204.528 215.199 204.731C214.037 204.934 212.772 205.035 211.405 205.035C208.67 205.035 206.688 204.562 205.457 203.615C204.227 202.668 203.611 200.943 203.611 198.439V177.738Z" fill="white"/>
<path d="M134.299 202.499C130.196 202.499 126.436 201.72 123.018 200.164C119.6 198.608 116.831 196.072 114.712 192.553C112.66 189.036 111.635 184.401 111.635 178.651C111.635 173.306 112.695 168.842 114.814 165.256C116.933 161.67 119.907 158.965 123.736 157.138C127.633 155.311 132.111 154.398 137.17 154.398C140.862 154.398 144.246 154.871 147.322 155.819C150.399 156.698 152.826 157.713 154.603 158.863C155.834 159.675 156.825 160.656 157.577 161.806C158.329 162.888 158.705 164.241 158.705 165.865V197.628H144.861V167.286C144.041 166.812 143.049 166.406 141.887 166.068C140.725 165.73 139.323 165.561 137.683 165.561C134.196 165.561 131.359 166.643 129.171 168.808C126.983 170.905 125.89 174.186 125.89 178.651C125.89 183.59 126.915 187.006 128.966 188.9C131.085 190.794 133.683 191.742 136.759 191.742C139.153 191.742 141.101 191.336 142.605 190.524C144.109 189.712 145.408 188.799 146.502 187.784L147.015 199.149C145.647 200.029 143.904 200.807 141.784 201.484C139.733 202.16 137.238 202.499 134.299 202.499ZM145.066 204.122V194.482H158.705V204.528C158.705 209.196 157.577 212.984 155.321 215.894C153.133 218.87 150.16 221.035 146.399 222.388C142.708 223.809 138.537 224.519 133.888 224.519C130.333 224.519 127.188 224.215 124.454 223.606C121.787 222.997 119.737 222.253 118.301 221.373C115.976 219.885 114.814 217.855 114.814 215.284C114.814 213.932 115.088 212.714 115.634 211.631C116.25 210.617 116.968 209.839 117.788 209.298C119.566 210.38 121.719 211.327 124.249 212.139C126.778 212.951 129.479 213.356 132.35 213.356C136.315 213.356 139.426 212.613 141.682 211.124C143.938 209.636 145.066 207.302 145.066 204.122Z" fill="white"/>
<path d="M58.0923 185.552V178.042H72.3467V185.45C72.3467 188.697 73.2015 191.065 74.9106 192.553C76.6198 193.974 79.0123 194.685 82.0888 194.685C84.0713 194.685 85.7121 194.516 87.0112 194.177C88.3786 193.771 89.4043 193.365 90.0877 192.96V178.042H104.342V194.482C104.342 196.105 104.035 197.492 103.419 198.642C102.872 199.725 101.881 200.705 100.445 201.585C98.3258 202.871 95.694 203.885 92.5491 204.63C89.4043 205.441 85.8835 205.847 81.9863 205.847C77.2007 205.847 72.9965 205.137 69.3727 203.716C65.8177 202.295 63.0493 200.097 61.0663 197.12C59.0838 194.143 58.0923 190.287 58.0923 185.552ZM104.342 182.71H90.0877V156.022C90.7033 155.886 91.5918 155.717 92.7542 155.514C93.9165 155.311 95.1809 155.21 96.5483 155.21C99.2831 155.21 101.266 155.683 102.496 156.63C103.727 157.51 104.342 159.235 104.342 161.806V182.71ZM72.3467 182.71H58.0923V156.022C58.7079 155.886 59.5964 155.717 60.7587 155.514C61.9211 155.311 63.186 155.21 64.5529 155.21C67.2877 155.21 69.2702 155.683 70.5009 156.63C71.7316 157.51 72.3467 159.235 72.3467 161.806V182.71Z" fill="white"/>
<path fill-rule="evenodd" clip-rule="evenodd" d="M386.503 193.605C388.623 189.748 389.682 185.182 389.682 179.905C389.682 174.696 388.588 170.163 386.401 166.307C384.282 162.451 381.308 159.474 377.479 157.377C373.651 155.28 369.172 154.231 364.045 154.231C358.918 154.231 354.405 155.28 350.509 157.377C346.68 159.474 343.672 162.451 341.484 166.307C339.365 170.095 338.305 174.628 338.305 179.905C338.305 185.249 339.365 189.85 341.484 193.706C343.603 197.562 346.577 200.539 350.406 202.636C354.303 204.665 358.849 205.68 364.045 205.68C367.739 205.68 371.088 205.15 374.092 204.09L374.492 196.46L366.432 194.291C365.682 194.442 364.886 194.518 364.045 194.518C360.558 194.518 357.824 193.266 355.841 190.763C353.927 188.26 352.97 184.641 352.97 179.905C352.97 175.305 353.961 171.753 355.944 169.25C357.926 166.679 360.593 165.394 363.943 165.394C367.429 165.394 370.13 166.679 372.044 169.25C374.026 171.821 375.018 175.372 375.018 179.905C375.018 184.333 374.126 187.817 372.342 190.358L378 191.881C379.223 192.21 380.049 193.338 379.983 194.591L379.633 201.271C382.489 199.297 384.779 196.742 386.503 193.605Z" fill="white"/>
<path fill-rule="evenodd" clip-rule="evenodd" d="M12.0504 201.607C16.1524 204.246 21.6558 205.565 28.5608 205.565C32.3893 205.565 35.8076 205.227 38.8157 204.55C41.8238 203.873 44.3192 202.96 46.3018 201.81C47.6007 200.999 48.6604 200.119 49.4808 199.172C50.3695 198.157 50.8139 196.804 50.8139 195.113V171.976C50.8139 165.82 48.7288 161.321 44.5584 158.479C40.4565 155.57 34.953 154.116 28.048 154.116C25.5185 154.116 22.9548 154.319 20.3569 154.725C17.759 155.13 15.4687 155.74 13.4861 156.551C10.5463 157.769 9.07648 159.731 9.07648 162.437C9.07648 163.587 9.34996 164.703 9.89687 165.786C10.4438 166.8 11.0933 167.578 11.8453 168.12C13.8279 167.24 16.084 166.496 18.6135 165.887C21.143 165.21 23.7068 164.872 26.3047 164.872C29.6546 164.872 32.2525 165.414 34.0984 166.496C35.9443 167.578 36.8673 169.337 36.8673 171.773V173.295L30.9863 173.903L27.9351 179.498L32.4566 183.333L36.9698 182.935V193.286C36.2178 193.76 35.0555 194.165 33.4831 194.504C31.9791 194.842 30.3383 195.011 28.5608 195.011C25.5527 195.011 23.3649 194.504 21.9976 193.489C20.6303 192.407 19.9466 190.986 19.9466 189.227C19.9466 187.536 20.6303 186.251 21.9976 185.371C22.9174 184.779 24.0846 184.341 25.4993 184.055L23.0727 181.997C22.1648 181.228 21.9221 179.935 22.49 178.894L24.8667 174.536L23.1257 174.716C17.4513 175.257 13.1784 176.745 10.3071 179.181C7.4357 181.616 6 185.134 6 189.735C6 195.011 8.01678 198.969 12.0504 201.607Z" fill="white"/>
<path d="M228.653 38.8503C229.809 39.5277 229.811 41.2097 228.658 41.8907L216.127 49.2887C215.577 49.6134 214.896 49.6103 214.349 49.2803L201.932 41.7899C200.787 41.0995 200.802 39.4221 201.959 38.7529L214.437 31.5336C214.977 31.2207 215.643 31.2226 216.182 31.5387L228.653 38.8503Z" fill="#F08728"/>
<path d="M231.396 46.7919C231.395 45.4355 229.937 44.5899 228.774 45.2714L217.096 52.1153C216 52.7572 214.646 52.7497 213.557 52.0963L186.418 35.8037C185.259 35.1076 185.287 33.4046 186.47 32.7491L213.663 17.6754C214.707 17.096 215.973 17.095 217.02 17.6726L245.261 33.2678C246.379 33.885 247.074 35.0676 247.075 36.3529L247.095 67.9493C247.096 69.1636 246.476 70.2926 245.454 70.9363L217.254 88.7062C216.11 89.4277 214.655 89.4185 213.519 88.6829L202.089 81.2793C200.932 80.5296 199.409 81.3629 199.402 82.7506L199.333 95.2346C199.326 96.4379 199.93 97.5616 200.933 98.2133L213.602 106.44C214.747 107.183 216.216 107.187 217.365 106.449L260.917 78.4898C261.922 77.8448 262.531 76.7273 262.533 75.5261L262.609 27.026C262.611 25.7162 261.892 24.5137 260.742 23.9045L217.029 0.742741C216.011 0.203064 214.794 0.204313 213.776 0.74608L169.892 24.1139C168.748 24.723 168.032 25.9199 168.032 27.2243L168.001 75.6322C168.001 76.8641 168.638 78.0068 169.684 78.6452L181.108 85.6228C182.268 86.332 183.753 85.4912 183.757 84.122L183.832 55.3843C183.835 54.005 185.339 53.1659 186.5 53.895L213.468 70.836C214.59 71.5412 216.012 71.5457 217.139 70.8478L229.741 63.0435C230.776 62.4029 231.406 61.266 231.405 60.0415L231.396 46.7919Z" fill="#0D9F9F"/>
<mask id="mask0_127_564" style="mask-type:alpha" maskUnits="userSpaceOnUse" x="168" y="0" width="95" height="107">
<path d="M228.65 38.511C229.806 39.1884 229.808 40.8705 228.655 41.5513L216.124 48.9495C215.574 49.2742 214.893 49.2707 214.346 48.9411L201.929 41.4506C200.784 40.7602 200.799 39.0829 201.956 38.4136L214.434 31.1943C214.975 30.8814 215.64 30.8833 216.179 31.1994L228.65 38.511Z" fill="#F08728"/>
<path d="M231.395 46.4528C231.394 45.0964 229.936 44.2512 228.773 44.9327L217.095 51.7761C215.999 52.4181 214.645 52.411 213.556 51.7576L186.417 35.4649C185.257 34.7688 185.286 33.0658 186.469 32.4103L213.661 17.3366C214.706 16.7572 215.972 16.7562 217.018 17.3338L245.26 32.9289C246.377 33.5462 247.073 34.7288 247.074 36.014L247.094 67.6101C247.095 68.8249 246.474 69.9539 245.453 70.5976L217.253 88.3675C216.108 89.0891 214.654 89.0798 213.518 88.3442L202.088 80.9406C200.931 80.1909 199.408 81.0238 199.4 82.4115L199.331 94.8955C199.325 96.0993 199.928 97.223 200.932 97.8746L213.6 106.101C214.746 106.844 216.215 106.848 217.364 106.111L260.916 78.1507C261.92 77.5057 262.53 76.3886 262.532 75.187L262.608 26.6872C262.609 25.3774 261.89 24.1748 260.74 23.5657L217.028 0.403875C216.009 -0.135803 214.793 -0.134554 213.775 0.40721L169.891 23.7751C168.747 24.3841 168.031 25.5811 168.03 26.8855L168 75.2935C167.999 76.5254 168.637 77.6681 169.682 78.3065L181.106 85.2841C182.267 85.9934 183.752 85.1521 183.755 83.7833L183.831 55.0452C183.834 53.6663 185.338 52.8272 186.498 53.5563L213.466 70.4973C214.589 71.2026 216.011 71.207 217.138 70.5092L229.74 62.7048C230.774 62.0637 231.405 60.9273 231.404 59.7028L231.395 46.4528Z" fill="#0D9F9F"/>
</mask>
<g mask="url(#mask0_127_564)">
<g style="mix-blend-mode:screen" opacity="0.4">
<path opacity="0.61" d="M166.956 -16.1143L146.59 -2.41905L174.196 6.70762L166.956 -16.1143Z" fill="white"/>
<path d="M191.821 -8.61151L166.957 -16.1143L174.197 6.70762L191.821 -8.61151Z" fill="white"/>
<path opacity="0.79" d="M146.59 -2.41895L150.743 15.306L174.196 6.70772L146.59 -2.41895Z" fill="white"/>
<path opacity="0.39" d="M174.196 6.70731L198.663 11.6951L191.82 -8.61182L174.196 6.70731Z" fill="white"/>
<path opacity="0.82" d="M171.284 27.2681L198.663 11.6953L174.197 6.70752L171.284 27.2681Z" fill="white"/>
<path opacity="0.61" d="M150.743 15.3059L171.283 27.2681L174.196 6.70752L150.743 15.3059Z" fill="white"/>
<path opacity="0.57" d="M212.357 -20.5703L191.82 -8.61157L212.357 3.34717V-20.5703Z" fill="white"/>
<path opacity="0.86" d="M238.778 -12.7187L212.356 -20.5703V3.34717L238.778 -12.7187Z" fill="white"/>
<path opacity="0.61" d="M191.82 -8.61182L198.659 11.6951L212.357 3.34689L191.82 -8.61182Z" fill="white"/>
<path opacity="0.57" d="M212.356 3.34716L232.897 15.3059L238.778 -12.7188L212.356 3.34716Z" fill="white"/>
<path opacity="0.77" d="M215.86 22.6502L232.897 15.3059L212.356 3.34717L215.86 22.6502Z" fill="white"/>
<path opacity="0.37" d="M198.659 11.6954L215.86 22.6502L212.358 3.34717L198.659 11.6954Z" fill="white"/>
<path opacity="0.81" d="M255.655 -14.7441L238.778 -12.7187L253.434 3.34712L255.655 -14.7441Z" fill="white"/>
<path opacity="0.86" d="M274.216 -13.8318L255.656 -14.7441L253.435 3.34712L274.216 -13.8318Z" fill="white"/>
<path opacity="0.5" d="M238.78 -12.7188L232.895 15.3059L253.435 3.34716L238.78 -12.7188Z" fill="white"/>
<path opacity="0.22" d="M253.435 3.34697L273.975 15.3057L274.216 -13.832L253.435 3.34697Z" fill="white"/>
<path opacity="0.5" d="M248.457 35.0245L273.974 15.3059L253.433 3.34717L248.457 35.0245Z" fill="white"/>
<path opacity="0.79" d="M232.895 15.3059L248.458 35.0245L253.435 3.34717L232.895 15.3059Z" fill="white"/>
<path opacity="0.39" d="M171.259 27.3L150.718 15.3413L154.284 32.2666L171.259 27.3Z" fill="white"/>
<path opacity="0.82" d="M154.285 32.2664L171.259 51.2209V27.2998L154.285 32.2664Z" fill="white"/>
<path opacity="0.61" d="M150.718 63.1797L171.259 51.221L154.284 32.2666L150.718 63.1797Z" fill="white"/>
<path opacity="0.81" d="M198.634 11.7271L171.255 27.2998L191.795 39.2584L198.634 11.7271Z" fill="white"/>
<path opacity="0.93" d="M215.836 22.6818L198.635 11.7271L191.796 39.2584L215.836 22.6818Z" fill="white"/>
<path opacity="0.57" d="M171.255 27.2998V51.2209L191.795 39.2585L171.255 27.2998Z" fill="white"/>
<path opacity="0.79" d="M191.796 39.2582L217.167 45.0138L215.836 22.6816L191.796 39.2582Z" fill="white"/>
<path opacity="0.86" d="M191.796 63.1793L217.167 45.0139L191.796 39.2583V63.1793Z" fill="white"/>
<path opacity="0.39" d="M171.255 51.2207L191.795 63.1793V39.2583L171.255 51.2207Z" fill="white"/>
<path opacity="0.35" d="M232.869 15.3413L215.833 22.682L232.869 39.2587V15.3413Z" fill="white"/>
<path opacity="0.77" d="M248.433 35.0599L232.87 15.3413V39.2587L248.433 35.0599Z" fill="white"/>
<path opacity="0.37" d="M215.833 22.6816L217.163 45.0138L232.869 39.2582L215.833 22.6816Z" fill="white"/>
<path opacity="0.22" d="M232.87 39.2588L253.41 51.2211L248.433 35.0601L232.87 39.2588Z" fill="white"/>
<path opacity="0.37" d="M232.87 63.1793L253.41 51.2207L232.87 39.2583V63.1793Z" fill="white"/>
<path opacity="0.63" d="M217.163 45.0139L232.869 63.1793V39.2583L217.163 45.0139Z" fill="white"/>
<path opacity="0.77" d="M273.947 15.3413L248.43 35.0599L273.947 39.2587V15.3413Z" fill="white"/>
<path opacity="0.57" d="M248.43 35.0601L253.407 51.2211L273.947 39.2588L248.43 35.0601Z" fill="white"/>
<path opacity="0.77" d="M253.406 51.2207L273.947 63.1793V39.2583L253.406 51.2207Z" fill="white"/>
<path opacity="0.37" d="M171.283 51.2524L150.743 63.2111L166.051 79.2769L171.283 51.2524Z" fill="white"/>
<path opacity="0.79" d="M191.819 63.2111L171.282 51.2524L166.05 79.2769L191.819 63.2111Z" fill="white"/>
<path opacity="0.69" d="M166.05 79.2768L191.819 87.1282V63.2109L166.05 79.2768Z" fill="white"/>
<path opacity="0.39" d="M171.282 99.0874L191.819 87.1283L166.05 79.2769L171.282 99.0874Z" fill="white"/>
<path opacity="0.58" d="M150.743 87.1283L171.283 99.0874L166.051 79.2769L150.743 87.1283Z" fill="white"/>
<path opacity="0.57" d="M217.191 45.0459L191.82 63.2113L212.357 75.17L217.191 45.0459Z" fill="white"/>
<path opacity="0.81" d="M232.897 63.2113L217.19 45.0459L212.356 75.17L232.897 63.2113Z" fill="white"/>
<path opacity="0.57" d="M191.82 63.2109V87.1282L212.357 75.1696L191.82 63.2109Z" fill="white"/>
<path opacity="0.65" d="M212.356 75.1696L230.34 82.8978L232.897 63.2109L212.356 75.1696Z" fill="white"/>
<path opacity="0.79" d="M214.047 101.61L230.34 82.8981L212.356 75.1699L214.047 101.61Z" fill="white"/>
<path opacity="0.69" d="M191.82 87.1285L214.047 101.61L212.357 75.1699L191.82 87.1285Z" fill="white"/>
<path opacity="0.65" d="M253.435 51.2524L232.895 63.2111L251.133 81.5596L253.435 51.2524Z" fill="white"/>
<path opacity="0.81" d="M273.974 63.2111L253.434 51.2524L251.133 81.5596L273.974 63.2111Z" fill="white"/>
<path opacity="0.35" d="M232.893 63.2109L230.337 82.8978L251.132 81.5594L232.893 63.2109Z" fill="white"/>
<path opacity="0.22" d="M251.133 81.5594L272.881 90.6542L273.974 63.2109L251.133 81.5594Z" fill="white"/>
<path opacity="0.37" d="M253.434 99.0871L272.881 90.6544L251.133 81.5596L253.434 99.0871Z" fill="white"/>
<path opacity="0.75" d="M230.337 82.898L253.434 99.0871L251.132 81.5596L230.337 82.898Z" fill="white"/>
<path opacity="0.79" d="M171.259 99.1223L150.718 87.1636L150.663 106.664L171.259 99.1223Z" fill="white"/>
<path opacity="0.58" d="M150.663 106.664L170.553 114.847L171.259 99.1226L150.663 106.664Z" fill="white"/>
<path opacity="0.81" d="M191.795 87.1636L171.255 99.1223L183.245 114.878L191.795 87.1636Z" fill="white"/>
<path opacity="0.57" d="M214.023 101.641L191.796 87.1636L183.246 114.878L214.023 101.641Z" fill="white"/>
<path opacity="0.69" d="M171.255 99.1226L170.55 114.847L183.245 114.878L171.255 99.1226Z" fill="white"/>
<path opacity="0.69" d="M183.246 114.878L212.333 123.04L214.023 101.641L183.246 114.878Z" fill="white"/>
<path opacity="0.37" d="M230.313 82.9297L214.023 101.641L240.27 111.684L230.313 82.9297Z" fill="white"/>
<path opacity="0.65" d="M253.41 99.1223L230.313 82.9297L240.271 111.684L253.41 99.1223Z" fill="white"/>
<path opacity="0.65" d="M214.023 101.641L212.333 123.04L240.27 111.684L214.023 101.641Z" fill="white"/>
<path opacity="0.75" d="M240.27 111.684L253.409 123.04V99.1226L240.27 111.684Z" fill="white"/>
<path opacity="0.26" d="M272.853 90.6895L253.406 99.1226L273.947 111.081L272.853 90.6895Z" fill="white"/>
<path opacity="0.7" d="M253.406 99.1226V123.04L273.947 111.081L253.406 99.1226Z" fill="white"/>
</g>
</g>
<g style="mix-blend-mode:color-burn" opacity="0.4">
<path d="M228.65 38.511C229.806 39.1884 229.808 40.8705 228.655 41.5513L216.124 48.9495C215.574 49.2742 214.893 49.2707 214.346 48.9411L201.929 41.4506C200.784 40.7602 200.799 39.0829 201.956 38.4136L214.434 31.1943C214.975 30.8814 215.64 30.8833 216.179 31.1994L228.65 38.511Z" fill="#F08728"/>
<path d="M231.395 46.4528C231.394 45.0964 229.936 44.2512 228.773 44.9327L217.095 51.7761C215.999 52.4181 214.645 52.411 213.556 51.7576L186.417 35.4649C185.257 34.7688 185.286 33.0658 186.469 32.4103L213.661 17.3366C214.706 16.7572 215.972 16.7562 217.018 17.3338L245.26 32.9289C246.377 33.5462 247.073 34.7288 247.074 36.014L247.094 67.6101C247.095 68.8249 246.474 69.9539 245.453 70.5976L217.253 88.3675C216.108 89.0891 214.654 89.0798 213.518 88.3442L202.088 80.9406C200.931 80.1909 199.408 81.0238 199.4 82.4115L199.331 94.8955C199.325 96.0993 199.928 97.223 200.932 97.8746L213.6 106.101C214.746 106.844 216.215 106.848 217.364 106.111L260.916 78.1507C261.92 77.5057 262.53 76.3886 262.532 75.187L262.608 26.6872C262.609 25.3774 261.89 24.1748 260.74 23.5657L217.028 0.403875C216.009 -0.135803 214.793 -0.134554 213.775 0.40721L169.891 23.7751C168.747 24.3841 168.031 25.5811 168.03 26.8855L168 75.2935C167.999 76.5254 168.637 77.6681 169.682 78.3065L181.106 85.2841C182.267 85.9934 183.752 85.1521 183.755 83.7833L183.831 55.0452C183.834 53.6663 185.338 52.8272 186.498 53.5563L213.466 70.4973C214.589 71.2026 216.011 71.207 217.138 70.5092L229.74 62.7048C230.774 62.0637 231.405 60.9273 231.404 59.7028L231.395 46.4528Z" fill="#0D9F9F"/>
</g>
<line y1="-0.816514" x2="233" y2="-0.816514" transform="matrix(-0.999994 -0.00337282 0.00334274 -0.999994 330.999 128.786)" stroke="url(#paint0_linear_127_564)" stroke-width="1.63303"/>
</g>
<defs>
<linearGradient id="paint0_linear_127_564" x1="233" y1="0" x2="0" y2="0" gradientUnits="userSpaceOnUse">
<stop stop-color="#E59800" stop-opacity="0"/>
<stop offset="0.491455" stop-color="#EF752E"/>
<stop offset="1" stop-color="#E59800" stop-opacity="0"/>
</linearGradient>
<clipPath id="clip0_127_564">
<rect width="451" height="233" fill="white"/>
</clipPath>
</defs>
</svg>
